<svg width="24" height="24" viewBox="0 0 24 24" fill="none" xmlns="http://www.w3.org/2000/svg">
<path d="M12.0026 5.73045C8.73739 5.73045 6.10368 8.36416 6.10368 11.6293C6.10368 14.8945 8.73739 17.5282 12.0026 17.5282C15.2677 17.5282 17.9015 14.8945 17.9015 11.6293C17.9015 8.36416 15.2677 5.73045 12.0026 5.73045ZM12.0026 15.4644C9.89252 15.4644 8.16752 13.7445 8.16752 11.6293C8.16752 9.51416 9.88739 7.79429 12.0026 7.79429C14.1177 7.79429 15.8376 9.51416 15.8376 11.6293C15.8376 13.7445 14.1126 15.4644 12.0026 15.4644ZM19.5186 5.48916C19.5186 6.25412 18.9026 6.86505 18.1427 6.86505C17.3778 6.86505 16.7669 6.24898 16.7669 5.48916C16.7669 4.72934 17.3829 4.11327 18.1427 4.11327C18.9026 4.11327 19.5186 4.72934 19.5186 5.48916ZM23.4256 6.88559C23.3383 5.04251 22.9173 3.40992 21.5671 2.06483C20.222 0.71974 18.5894 0.298758 16.7463 0.206348C14.8468 0.0985352 9.15324 0.0985352 7.25368 0.206348C5.41574 0.293624 3.78315 0.714607 2.43292 2.0597C1.0827 3.40479 0.666853 5.03737 0.574442 6.88046C0.46663 8.78001 0.46663 14.4735 0.574442 16.3731C0.661719 18.2162 1.0827 19.8488 2.43292 21.1938C3.78315 22.5389 5.4106 22.9599 7.25368 23.0523C9.15324 23.1601 14.8468 23.1601 16.7463 23.0523C18.5894 22.9651 20.222 22.5441 21.5671 21.1938C22.9122 19.8488 23.3331 18.2162 23.4256 16.3731C23.5334 14.4735 23.5334 8.78514 23.4256 6.88559ZM20.9715 18.4113C20.5711 19.4175 19.7959 20.1927 18.7845 20.5983C17.27 21.199 13.6762 21.0604 12.0026 21.0604C10.3289 21.0604 6.73002 21.1938 5.22065 20.5983C4.2144 20.1979 3.43917 19.4226 3.03359 18.4113C2.43292 16.8967 2.57154 13.303 2.57154 11.6293C2.57154 9.95568 2.43806 6.35679 3.03359 4.84742C3.43404 3.84117 4.20926 3.06595 5.22065 2.66037C6.73516 2.0597 10.3289 2.19831 12.0026 2.19831C13.6762 2.19831 17.2751 2.06483 18.7845 2.66037C19.7907 3.06081 20.566 3.83604 20.9715 4.84742C21.5722 6.36193 21.4336 9.95568 21.4336 11.6293C21.4336 13.303 21.5722 16.9019 20.9715 18.4113Z" fill="white"/>
</svg>
