<svg width="24" height="24" viewBox="0 0 24 24" fill="none" xmlns="http://www.w3.org/2000/svg">
<path d="M5.6483 23.1291H0.879911V7.77348H5.6483V23.1291ZM3.26154 5.67884C1.73676 5.67884 0.5 4.41589 0.5 2.89112C0.5 2.15871 0.790947 1.4563 1.30884 0.938414C1.82673 0.420525 2.52913 0.129578 3.26154 0.129578C3.99395 0.129578 4.69635 0.420525 5.21424 0.938414C5.73213 1.4563 6.02308 2.15871 6.02308 2.89112C6.02308 4.41589 4.7858 5.67884 3.26154 5.67884ZM23.4949 23.1291H18.7367V15.6541C18.7367 13.8726 18.7008 11.588 16.2576 11.588C13.7784 11.588 13.3985 13.5235 13.3985 15.5257V23.1291H8.63522V7.77348H13.2085V9.86813H13.2753C13.9119 8.66165 15.4669 7.38844 17.787 7.38844C22.6129 7.38844 23.5 10.5663 23.5 14.694V23.1291H23.4949Z" fill="white"/>
</svg>
