<svg width="48" height="49" viewBox="0 0 48 49" fill="none" xmlns="http://www.w3.org/2000/svg">
<rect y="0.629333" width="48" height="48" rx="24" fill="white"/>
<path d="M35.5453 21.5731C35.7281 21.4278 36 21.5637 36 21.7934V31.3793C36 32.6215 34.9922 33.6293 33.75 33.6293H14.25C13.0078 33.6293 12 32.6215 12 31.3793V21.7981C12 21.5637 12.2672 21.4325 12.4547 21.5778C13.5047 22.3934 14.8969 23.4293 19.6781 26.9028C20.6672 27.6246 22.3359 29.1434 24 29.134C25.6734 29.1481 27.375 27.5965 28.3266 26.9028C33.1078 23.4293 34.4953 22.3887 35.5453 21.5731ZM24 27.6293C25.0875 27.6481 26.6531 26.2606 27.4406 25.6887C33.6609 21.1746 34.1344 20.7809 35.5687 19.6559C35.8406 19.445 36 19.1168 36 18.77V17.8793C36 16.6371 34.9922 15.6293 33.75 15.6293H14.25C13.0078 15.6293 12 16.6371 12 17.8793V18.77C12 19.1168 12.1594 19.4403 12.4312 19.6559C13.8656 20.7762 14.3391 21.1746 20.5594 25.6887C21.3469 26.2606 22.9125 27.6481 24 27.6293Z" fill="#314E76"/>
</svg>
