<svg width="24" height="25" viewBox="0 0 24 25" fill="none" xmlns="http://www.w3.org/2000/svg">
<path d="M18 9.12933H17V7.12933C17 4.36933 14.76 2.12933 12 2.12933C9.24 2.12933 7 4.36933 7 7.12933V9.12933H6C4.9 9.12933 4 10.0293 4 11.1293V21.1293C4 22.2293 4.9 23.1293 6 23.1293H18C19.1 23.1293 20 22.2293 20 21.1293V11.1293C20 10.0293 19.1 9.12933 18 9.12933ZM9 7.12933C9 5.46933 10.34 4.12933 12 4.12933C13.66 4.12933 15 5.46933 15 7.12933V9.12933H9V7.12933ZM18 21.1293H6V11.1293H18V21.1293ZM12 18.1293C13.1 18.1293 14 17.2293 14 16.1293C14 15.0293 13.1 14.1293 12 14.1293C10.9 14.1293 10 15.0293 10 16.1293C10 17.2293 10.9 18.1293 12 18.1293Z" fill="#999999"/>
</svg>
