<svg width="22" height="20" viewBox="0 0 22 20" fill="none" xmlns="http://www.w3.org/2000/svg">
<path d="M10.83 6.62933L14 9.78933V9.62933C14 8.83368 13.6839 8.07062 13.1213 7.50801C12.5587 6.9454 11.7956 6.62933 11 6.62933H10.83ZM6.53 7.42933L8.08 8.97933C8.03 9.18933 8 9.39933 8 9.62933C8 10.425 8.31607 11.188 8.87868 11.7507C9.44129 12.3133 10.2044 12.6293 11 12.6293C11.22 12.6293 11.44 12.5993 11.65 12.5493L13.2 14.0993C12.53 14.4293 11.79 14.6293 11 14.6293C9.67392 14.6293 8.40215 14.1025 7.46447 13.1649C6.52678 12.2272 6 10.9554 6 9.62933C6 8.83933 6.2 8.09933 6.53 7.42933ZM1 1.89933L3.28 4.17933L3.73 4.62933C2.08 5.92933 0.78 7.62933 0 9.62933C1.73 14.0193 6 17.1293 11 17.1293C12.55 17.1293 14.03 16.8293 15.38 16.2893L15.81 16.7093L18.73 19.6293L20 18.3593L2.27 0.629333M11 4.62933C12.3261 4.62933 13.5979 5.15612 14.5355 6.0938C15.4732 7.03148 16 8.30325 16 9.62933C16 10.2693 15.87 10.8893 15.64 11.4493L18.57 14.3793C20.07 13.1293 21.27 11.4893 22 9.62933C20.27 5.23933 16 2.12933 11 2.12933C9.6 2.12933 8.26 2.37933 7 2.82933L9.17 4.97933C9.74 4.75933 10.35 4.62933 11 4.62933Z" fill="#000"/>
</svg>
