<svg width="60" height="61" viewBox="0 0 60 61" fill="none" xmlns="http://www.w3.org/2000/svg">
<rect y="0.314453" width="60" height="60" rx="30" fill="#999999"/>
<g clip-path="url(#clip0_1868_5783)">
<path d="M42.334 20.2188L31.084 15.5313C30.7413 15.3891 30.3739 15.3159 30.0029 15.3159C29.6319 15.3159 29.2646 15.3891 28.9219 15.5313L17.6719 20.2188C16.623 20.6523 15.9375 21.6777 15.9375 22.8145C15.9375 34.4453 22.6465 42.4844 28.916 45.0977C29.6074 45.3848 30.3867 45.3848 31.0781 45.0977C36.0996 43.0059 44.0625 35.7813 44.0625 22.8145C44.0625 21.6777 43.377 20.6523 42.334 20.2188ZM30.0059 41.4648L30 19.1406L40.3066 23.4356C40.1133 32.3066 35.4961 38.7344 30.0059 41.4648Z" fill="white"/>
</g>
<defs>
<clipPath id="clip0_1868_5783">
<rect width="30" height="30" fill="white" transform="translate(15 15.3145)"/>
</clipPath>
</defs>
</svg>
