<svg width="60" height="61" viewBox="0 0 60 61" fill="none" xmlns="http://www.w3.org/2000/svg">
<rect y="0.814453" width="60" height="60" rx="30" fill="#999999"/>
<path d="M43.6364 20.1002V22.7787C43.6364 25.1392 37.5284 27.0645 30 27.0645C22.4716 27.0645 16.3636 25.1392 16.3636 22.7787V20.1002C16.3636 17.7397 22.4716 15.8145 30 15.8145C37.5284 15.8145 43.6364 17.7397 43.6364 20.1002ZM43.6364 26.127V32.1537C43.6364 34.5142 37.5284 36.4395 30 36.4395C22.4716 36.4395 16.3636 34.5142 16.3636 32.1537V26.127C19.2933 28.0689 24.6555 28.973 30 28.973C35.3445 28.973 40.7066 28.0689 43.6364 26.127ZM43.6364 35.502V41.5287C43.6364 43.8892 37.5284 45.8145 30 45.8145C22.4716 45.8145 16.3636 43.8892 16.3636 41.5287V35.502C19.2933 37.4439 24.6555 38.348 30 38.348C35.3445 38.348 40.7066 37.4439 43.6364 35.502Z" fill="white"/>
</svg>
