<svg width="60" height="61" viewBox="0 0 60 61" fill="none" xmlns="http://www.w3.org/2000/svg">
<rect y="0.314453" width="60" height="60" rx="30" fill="#999999"/>
<path d="M40.3125 28.4395H38.9062V24.2207C38.9062 19.3105 34.9102 15.3145 30 15.3145C25.0898 15.3145 21.0938 19.3105 21.0938 24.2207V28.4395H19.6875C18.1348 28.4395 16.875 29.6992 16.875 31.252V42.502C16.875 44.0547 18.1348 45.3145 19.6875 45.3145H40.3125C41.8652 45.3145 43.125 44.0547 43.125 42.502V31.252C43.125 29.6992 41.8652 28.4395 40.3125 28.4395ZM34.2188 28.4395H25.7812V24.2207C25.7812 21.8945 27.6738 20.002 30 20.002C32.3262 20.002 34.2188 21.8945 34.2188 24.2207V28.4395Z" fill="white"/>
</svg>
