<svg width="60" height="61" viewBox="0 0 60 61" fill="none" xmlns="http://www.w3.org/2000/svg">
<rect y="0.314453" width="60" height="60" rx="30" fill="#999999"/>
<g clip-path="url(#clip0_1868_5806)">
<path d="M39.4167 15.3145H13.5833C12.1571 15.3145 11 16.4482 11 17.8457V34.7207C11 36.1182 12.1571 37.252 13.5833 37.252H23.9167L23.0556 39.7832H19.1806C18.4648 39.7832 17.8889 40.3475 17.8889 41.0488C17.8889 41.7502 18.4648 42.3145 19.1806 42.3145H33.8194C34.5352 42.3145 35.1111 41.7502 35.1111 41.0488C35.1111 40.3475 34.5352 39.7832 33.8194 39.7832H29.9444L29.0833 37.252H39.4167C40.8429 37.252 42 36.1182 42 34.7207V17.8457C42 16.4482 40.8429 15.3145 39.4167 15.3145ZM38.5556 33.877H14.4444V18.6895H38.5556V33.877Z" fill="white"/>
</g>
<g clip-path="url(#clip1_1868_5806)">
<rect x="31" y="29.3145" width="21" height="21" fill="#999999"/>
<path d="M42.5 28.3143H31.5C30.6719 28.3143 30 28.9862 30 29.8143V42.8143C30 43.6424 30.6719 44.3143 31.5 44.3143H42.5C43.3281 44.3143 44 43.6424 44 42.8143V29.8143C44 28.9862 43.3281 28.3143 42.5 28.3143ZM37 43.3143C36.4469 43.3143 36 42.8674 36 42.3143C36 41.7612 36.4469 41.3143 37 41.3143C37.5531 41.3143 38 41.7612 38 42.3143C38 42.8674 37.5531 43.3143 37 43.3143ZM42.5 39.9393C42.5 40.1456 42.3313 40.3143 42.125 40.3143H31.875C31.6688 40.3143 31.5 40.1456 31.5 39.9393V30.1893C31.5 29.9831 31.6688 29.8143 31.875 29.8143H42.125C42.3313 29.8143 42.5 29.9831 42.5 30.1893V39.9393Z" fill="white"/>
</g>
<path d="M47.9499 33.4803H43.0499C42.4703 33.4803 41.9999 33.9842 41.9999 34.6053V44.3553C41.9999 44.9763 42.4703 45.4803 43.0499 45.4803H47.9499C48.5296 45.4803 48.9999 44.9763 48.9999 44.3553V34.6053C48.9999 33.9842 48.5296 33.4803 47.9499 33.4803ZM45.4999 44.7303C45.1128 44.7303 44.7999 44.3951 44.7999 43.9803C44.7999 43.5654 45.1128 43.2303 45.4999 43.2303C45.8871 43.2303 46.1999 43.5654 46.1999 43.9803C46.1999 44.3951 45.8871 44.7303 45.4999 44.7303Z" fill="white"/>
<defs>
<clipPath id="clip0_1868_5806">
<rect width="31" height="27" fill="white" transform="translate(11 15.3145)"/>
</clipPath>
<clipPath id="clip1_1868_5806">
<rect width="14" height="16" fill="white" transform="translate(30 28.3145)"/>
</clipPath>
</defs>
</svg>
