<svg width="60" height="61" viewBox="0 0 60 61" fill="none" xmlns="http://www.w3.org/2000/svg">
<rect y="0.814453" width="60" height="60" rx="30" fill="#999999"/>
<g clip-path="url(#clip0_1868_5774)">
<path d="M30 18.627C36.7355 18.627 42.1875 24.0779 42.1875 30.8145C42.1875 37.55 36.7366 43.002 30 43.002C23.2645 43.002 17.8125 37.551 17.8125 30.8145C17.8125 24.0789 23.2634 18.627 30 18.627ZM30 16.2832C21.9746 16.2832 15.4688 22.789 15.4688 30.8145C15.4688 38.8399 21.9746 45.3457 30 45.3457C38.0254 45.3457 44.5312 38.8399 44.5312 30.8145C44.5312 22.789 38.0254 16.2832 30 16.2832ZM30 19.5645C23.7868 19.5645 18.75 24.6012 18.75 30.8145C18.75 37.0277 23.7868 42.0645 30 42.0645C36.2132 42.0645 41.25 37.0277 41.25 30.8145C41.25 24.6012 36.2132 19.5645 30 19.5645ZM30 22.1426C31.165 22.1426 32.1094 23.087 32.1094 24.252C32.1094 25.4169 31.165 26.3613 30 26.3613C28.835 26.3613 27.8906 25.4169 27.8906 24.252C27.8906 23.087 28.835 22.1426 30 22.1426ZM36.8989 27.8861C35.2165 28.2833 33.6463 28.6331 32.086 28.8123C32.1359 34.7316 32.8071 36.0224 33.553 37.9307C33.7649 38.4733 33.4969 39.0849 32.9544 39.2968C32.4117 39.5088 31.8001 39.2408 31.5882 38.6982C31.0781 37.3911 30.5871 36.3172 30.2838 34.0957H29.7163C29.4135 36.3135 28.9233 37.3891 28.4119 38.6982C28.2001 39.2405 27.5886 39.5089 27.0458 39.2968C26.5032 39.0849 26.2352 38.4732 26.4471 37.9307C27.192 36.024 27.8642 34.735 27.9141 28.8123C26.3538 28.6331 24.7836 28.2834 23.1012 27.8861C22.5973 27.7671 22.2852 27.2622 22.4042 26.7582C22.5232 26.2543 23.028 25.9423 23.5321 26.0613C29.1973 27.3989 30.8143 27.3962 36.4681 26.0613C36.972 25.9423 37.477 26.2543 37.596 26.7582C37.7149 27.2622 37.4028 27.7672 36.8989 27.8861Z" fill="white"/>
</g>
<defs>
<clipPath id="clip0_1868_5774">
<rect width="30" height="30" fill="white" transform="translate(15 15.8145)"/>
</clipPath>
</defs>
</svg>
