<svg width="60" height="61" viewBox="0 0 60 61" fill="none" xmlns="http://www.w3.org/2000/svg">
<g clip-path="url(#clip0_1868_5819)">
<rect y="0.814453" width="60" height="60" rx="30" fill="#999999"/>
<path d="M16.8285 28.6716C19.0505 28.6716 20.8571 26.7497 20.8571 24.3859C20.8571 22.022 19.0505 20.1002 16.8285 20.1002C14.6065 20.1002 12.8 22.022 12.8 24.3859C12.8 26.7497 14.6065 28.6716 16.8285 28.6716ZM45.0285 28.6716C47.2505 28.6716 49.0571 26.7497 49.0571 24.3859C49.0571 22.022 47.2505 20.1002 45.0285 20.1002C42.8065 20.1002 41 22.022 41 24.3859C41 26.7497 42.8065 28.6716 45.0285 28.6716ZM47.0428 30.8145H43.0142C41.9064 30.8145 40.9055 31.2899 40.1754 32.06C42.7121 33.5399 44.5124 36.2118 44.9026 39.3859H49.0571C50.1712 39.3859 51.0714 38.4283 51.0714 37.243V35.1002C51.0714 32.7363 49.2648 30.8145 47.0428 30.8145ZM30.9285 30.8145C34.8249 30.8145 37.9785 27.4595 37.9785 23.3145C37.9785 19.1694 34.8249 15.8145 30.9285 15.8145C27.0321 15.8145 23.8785 19.1694 23.8785 23.3145C23.8785 27.4595 27.0321 30.8145 30.9285 30.8145ZM35.7628 32.9573H35.2404C33.9311 33.627 32.477 34.0287 30.9285 34.0287C29.38 34.0287 27.9323 33.627 26.6167 32.9573H26.0942C22.0909 32.9573 18.8428 36.4127 18.8428 40.6716V42.6002C18.8428 44.3747 20.1962 45.8145 21.8642 45.8145H39.9928C41.6609 45.8145 43.0142 44.3747 43.0142 42.6002V40.6716C43.0142 36.4127 39.7662 32.9573 35.7628 32.9573ZM21.6817 32.06C20.9515 31.2899 19.9507 30.8145 18.8428 30.8145H14.8142C12.5922 30.8145 10.7857 32.7363 10.7857 35.1002V37.243C10.7857 38.4283 11.6858 39.3859 12.8 39.3859H16.9481C17.3447 36.2118 19.145 33.5399 21.6817 32.06Z" fill="white"/>
</g>
<defs>
<clipPath id="clip0_1868_5819">
<rect y="0.814453" width="60" height="60" rx="30" fill="white"/>
</clipPath>
</defs>
</svg>
