<svg width="48" height="49" viewBox="0 0 48 49" fill="none" xmlns="http://www.w3.org/2000/svg">
<rect y="0.629333" width="48" height="48" rx="24" fill="white"/>
<path d="M35.3154 29.5885L30.0654 27.3385C29.8411 27.2429 29.5918 27.2228 29.3551 27.2811C29.1184 27.3394 28.9071 27.4731 28.7529 27.6619L26.4279 30.5026C22.779 28.7822 19.8425 25.8456 18.1221 22.1968L20.9627 19.8718C21.1519 19.7179 21.2859 19.5065 21.3442 19.2697C21.4026 19.0329 21.3822 18.7835 21.2862 18.5593L19.0362 13.3093C18.9307 13.0676 18.7443 12.8703 18.509 12.7513C18.2737 12.6324 18.0042 12.5993 17.7471 12.6577L12.8721 13.7827C12.6242 13.84 12.403 13.9795 12.2447 14.1787C12.0863 14.3778 12.0002 14.6247 12.0002 14.8791C12.0002 26.9026 21.7455 36.6291 33.7502 36.6291C34.0047 36.6293 34.2517 36.5432 34.451 36.3848C34.6502 36.2264 34.7898 36.0052 34.8471 35.7572L35.9721 30.8822C36.0302 30.6239 35.9963 30.3534 35.8765 30.1172C35.7566 29.8811 35.5582 29.6941 35.3154 29.5885Z" fill="#314E76"/>
</svg>
