<svg width="24" height="31" viewBox="0 0 24 31" fill="none" xmlns="http://www.w3.org/2000/svg">
<path d="M3.08416 14.6897L9.05099 17.6013C10.201 18.1643 10.0213 19.848 8.78146 20.1594L2.34145 21.7652C2.15241 21.8128 1.95537 21.8193 1.76361 21.7843C1.57184 21.7493 1.38979 21.6737 1.2297 21.5624C1.06962 21.4512 0.935211 21.307 0.835527 21.1395C0.735843 20.972 0.673193 20.785 0.651793 20.5913C0.454187 18.8689 0.638231 17.1242 1.19086 15.481C1.25285 15.2969 1.35339 15.1282 1.48575 14.9861C1.61812 14.844 1.77927 14.7318 1.95845 14.6569C2.13764 14.582 2.33073 14.5462 2.52485 14.5519C2.71897 14.5575 2.90965 14.6045 3.08416 14.6897ZM5.71958 29.0198C7.1472 29.9979 8.77028 30.6541 10.4765 30.9431C10.6685 30.976 10.8654 30.9675 11.0538 30.918C11.2422 30.8685 11.4179 30.7793 11.5689 30.6563C11.72 30.5332 11.8429 30.3793 11.9295 30.2048C12.0161 30.0303 12.0643 29.8392 12.0709 29.6445L12.3045 23.0069C12.3465 21.7311 10.7772 21.0956 9.92007 22.0426L5.4752 26.978C5.34504 27.1228 5.24733 27.2938 5.18861 27.4794C5.12988 27.6651 5.1115 27.8611 5.1347 28.0544C5.15789 28.2478 5.22213 28.4339 5.3231 28.6004C5.42407 28.7669 5.55946 28.9099 5.72018 29.0198H5.71958ZM14.4248 22.4361L17.9473 28.0663C18.0511 28.2316 18.189 28.3729 18.3517 28.4807C18.5145 28.5885 18.6983 28.6604 18.891 28.6916C19.0837 28.7228 19.2809 28.7125 19.4693 28.6615C19.6577 28.6105 19.8331 28.5198 19.9838 28.3957C21.3187 27.2921 22.3963 25.91 23.1409 24.3461C23.2229 24.1701 23.2668 23.9786 23.2697 23.7844C23.2725 23.5902 23.2342 23.3975 23.1574 23.2191C23.0805 23.0407 22.9668 22.8806 22.8236 22.7493C22.6805 22.6179 22.5112 22.5183 22.3269 22.457L16.0127 20.405C14.7962 20.0157 13.748 21.3514 14.4248 22.4361ZM23.3092 14.516C22.6188 12.9279 21.5881 11.5107 20.2898 10.3647C20.1438 10.2366 19.9721 10.1412 19.7863 10.0846C19.6005 10.028 19.4047 10.0117 19.2121 10.0366C19.0195 10.0615 18.8344 10.1272 18.6691 10.2292C18.5037 10.3312 18.3621 10.4672 18.2534 10.6282L14.5398 16.1338C13.8271 17.194 14.8213 18.5662 16.0492 18.2128L22.4365 16.3854C22.6237 16.3303 22.7971 16.2361 22.9451 16.1089C23.0932 15.9818 23.2125 15.8246 23.2952 15.6479C23.378 15.4711 23.4222 15.2788 23.425 15.0837C23.4279 14.8886 23.3892 14.6951 23.3116 14.516H23.3092ZM4.23476 2.10323C4.0651 2.18489 3.9141 2.30066 3.7912 2.44331C3.66831 2.58597 3.57615 2.75243 3.5205 2.93231C3.46485 3.11219 3.4469 3.30162 3.46777 3.48875C3.48864 3.67588 3.54788 3.8567 3.64179 4.0199L9.87815 14.8275C10.5789 16.0374 12.4303 15.5403 12.4303 14.1447V1.66599C12.432 1.47741 12.3944 1.29055 12.3199 1.11731C12.2454 0.944062 12.1356 0.788239 11.9976 0.659764C11.8595 0.53129 11.6962 0.432982 11.5181 0.371103C11.3399 0.309225 11.1508 0.285134 10.9629 0.300365C8.62896 0.485834 6.3487 1.09685 4.23476 2.10323Z" fill="white"/>
</svg>
