<svg width="22" height="17" viewBox="0 0 22 17" fill="none" xmlns="http://www.w3.org/2000/svg">
<path d="M21.448 3.36182C21.1972 2.41747 20.4583 1.67372 19.52 1.42132C17.8194 0.962677 11 0.962677 11 0.962677C11 0.962677 4.18066 0.962677 2.47998 1.42132C1.54173 1.67376 0.802774 2.41747 0.55197 3.36182C0.096283 5.07353 0.096283 8.64484 0.096283 8.64484C0.096283 8.64484 0.096283 12.2161 0.55197 13.9278C0.802774 14.8722 1.54173 15.585 2.47998 15.8374C4.18066 16.296 11 16.296 11 16.296C11 16.296 17.8193 16.296 19.52 15.8374C20.4583 15.585 21.1972 14.8722 21.448 13.9278C21.9037 12.2161 21.9037 8.64484 21.9037 8.64484C21.9037 8.64484 21.9037 5.07353 21.448 3.36182ZM8.76968 11.8873V5.40236L14.4693 8.64492L8.76968 11.8873Z" fill="white"/>
</svg>
