<svg width="20" height="28" viewBox="0 0 20 28" fill="none" xmlns="http://www.w3.org/2000/svg">
<g clip-path="url(#clip0_14_1912)">
<path d="M11.3176 22.7403V18.6533H8.65546V22.7403H5.71484L10.0368 27.678L14.3587 22.7403H11.3176Z" fill="#D60000"/>
<path d="M18.4683 8.35775V6.16183C18.4683 6.0467 18.4185 5.92979 18.3351 5.84773L12.8086 0.429577C12.7366 0.34245 12.5909 0.296875 12.4803 0.296875H1.91154C1.65662 0.296875 1.45 0.496896 1.45 0.743684V8.35775H0V17.2299H1.45V20.9878C1.45 21.2348 1.65662 21.4346 1.91154 21.4346H7.84V20.541H2.37308V17.2299H17.5452V20.541H12.0406V21.4346H18.0068C18.2617 21.4346 18.4683 21.2348 18.4683 20.9878V17.2299H19.8695V8.35775H18.4683ZM12.9418 1.83136L16.9015 5.71502H12.9418V1.83136ZM17.5452 8.35775H2.37308V1.19049H12.0188V6.16168C12.0188 6.40847 12.2254 6.60849 12.4803 6.60849H17.5452V8.35775Z" fill="black"/>
<rect y="8.33984" width="20" height="8.93617" fill="#D60000"/>
<path d="M4.8125 14.7441V10.8447H6.40166C6.70717 10.8447 6.96744 10.9012 7.18247 11.0142C7.39751 11.1259 7.56141 11.2814 7.67417 11.4807C7.78824 11.6787 7.84528 11.9072 7.84528 12.1661C7.84528 12.4251 7.78759 12.6535 7.6722 12.8516C7.55682 13.0496 7.38964 13.2038 7.17067 13.3142C6.95302 13.4247 6.68947 13.4799 6.38003 13.4799H5.36713V12.8192H6.24235C6.40625 12.8192 6.5413 12.7919 6.64751 12.7373C6.75503 12.6815 6.83501 12.6047 6.88746 12.5069C6.94122 12.4079 6.96809 12.2943 6.96809 12.1661C6.96809 12.0366 6.94122 11.9237 6.88746 11.8272C6.83501 11.7295 6.75503 11.6539 6.64751 11.6006C6.53999 11.546 6.40363 11.5187 6.23842 11.5187H5.66412V14.7441H4.8125Z" fill="white"/>
<path d="M9.82632 14.7441H8.39844V10.8447H9.83812C10.2433 10.8447 10.5921 10.9228 10.8845 11.0789C11.1768 11.2338 11.4017 11.4565 11.5591 11.7472C11.7177 12.0379 11.797 12.3857 11.797 12.7906C11.797 13.1968 11.7177 13.5459 11.5591 13.8378C11.4017 14.1298 11.1755 14.3538 10.8805 14.51C10.5868 14.6661 10.2354 14.7441 9.82632 14.7441ZM9.25005 14.0378H9.79092C10.0427 14.0378 10.2544 13.9946 10.4262 13.9083C10.5993 13.8207 10.7291 13.6855 10.8156 13.5027C10.9035 13.3187 10.9474 13.0813 10.9474 12.7906C10.9474 12.5025 10.9035 12.267 10.8156 12.0842C10.7291 11.9015 10.5999 11.7669 10.4282 11.6806C10.2564 11.5943 10.0446 11.5511 9.79289 11.5511H9.25005V14.0378Z" fill="white"/>
<path d="M12.4279 14.7441V10.8447H15.0948V11.5245H13.2795V12.4536H14.9178V13.1334H13.2795V14.7441H12.4279Z" fill="white"/>
</g>
<defs>
<clipPath id="clip0_14_1912">
<rect width="20" height="28" fill="white"/>
</clipPath>
</defs>
</svg>
