<svg width="23" height="23" viewBox="0 0 23 23" fill="none" xmlns="http://www.w3.org/2000/svg">
<path d="M20.4844 6.71954H17.25V3.53671C17.25 3.53671 17.25 3.53671 17.25 3.51549C17.2485 3.483 17.2425 3.45087 17.232 3.42V3.38818C17.2152 3.35159 17.1921 3.3181 17.1637 3.28915L14.6481 0.813614C14.6187 0.785754 14.5847 0.763031 14.5475 0.746421H14.5116C14.4758 0.727119 14.4369 0.713964 14.3966 0.70752H6.10938C6.01406 0.70752 5.92265 0.744779 5.85526 0.811101C5.78786 0.877423 5.75 0.967375 5.75 1.06117V6.71954H2.51562C2.03906 6.71954 1.58202 6.90584 1.24504 7.23745C0.908063 7.56906 0.71875 8.01882 0.71875 8.48779V16.2681C0.71875 16.737 0.908063 17.1868 1.24504 17.5184C1.58202 17.85 2.03906 18.0363 2.51562 18.0363H5.75V21.5728C5.75 21.6666 5.78786 21.7565 5.85526 21.8229C5.92265 21.8892 6.01406 21.9264 6.10938 21.9264H16.8906C16.9859 21.9264 17.0773 21.8892 17.1447 21.8229C17.2121 21.7565 17.25 21.6666 17.25 21.5728V18.0363H20.4844C20.9609 18.0363 21.418 17.85 21.755 17.5184C22.0919 17.1868 22.2812 16.737 22.2812 16.2681V8.48779C22.2812 8.01882 22.0919 7.56906 21.755 7.23745C21.418 6.90584 20.9609 6.71954 20.4844 6.71954ZM14.7344 1.91346L16.0245 3.18306H14.7344V1.91346ZM6.46875 1.41482H14.0156V3.53671C14.0156 3.6305 14.0535 3.72045 14.1209 3.78678C14.1883 3.8531 14.2797 3.89036 14.375 3.89036H16.5312V6.71954H6.46875V1.41482ZM16.5312 21.2191H6.46875V14.1143H16.5312V21.2191ZM21.5625 16.2681C21.5625 16.5494 21.4489 16.8193 21.2467 17.0183C21.0445 17.2172 20.7703 17.329 20.4844 17.329H17.25V13.7607C17.25 13.6669 17.2121 13.5769 17.1447 13.5106C17.0773 13.4443 16.9859 13.407 16.8906 13.407H6.10938C6.01406 13.407 5.92265 13.4443 5.85526 13.5106C5.78786 13.5769 5.75 13.6669 5.75 13.7607V17.329H2.51562C2.22969 17.329 1.95546 17.2172 1.75328 17.0183C1.55109 16.8193 1.4375 16.5494 1.4375 16.2681V8.48779C1.4375 8.20641 1.55109 7.93655 1.75328 7.73759C1.95546 7.53862 2.22969 7.42684 2.51562 7.42684H20.4844C20.7703 7.42684 21.0445 7.53862 21.2467 7.73759C21.4489 7.93655 21.5625 8.20641 21.5625 8.48779V16.2681Z" fill="black" stroke="black" stroke-width="0.1"/>
<path d="M19.0469 8.84106C18.8336 8.84106 18.6252 8.90329 18.4479 9.01987C18.2706 9.13644 18.1324 9.30214 18.0508 9.496C17.9692 9.68987 17.9479 9.90319 17.9895 10.109C18.0311 10.3148 18.1337 10.5038 18.2845 10.6522C18.4353 10.8006 18.6274 10.9016 18.8365 10.9426C19.0457 10.9835 19.2625 10.9625 19.4595 10.8822C19.6565 10.8019 19.8248 10.6659 19.9433 10.4914C20.0618 10.317 20.125 10.1118 20.125 9.90201C20.125 9.62063 20.0114 9.35077 19.8092 9.15181C19.607 8.95284 19.3328 8.84106 19.0469 8.84106ZM19.0469 10.2557C18.9758 10.2557 18.9063 10.2349 18.8472 10.1961C18.7881 10.1572 18.7421 10.102 18.7149 10.0373C18.6877 9.97272 18.6805 9.90162 18.6944 9.83302C18.7083 9.76442 18.7425 9.7014 18.7928 9.65194C18.843 9.60248 18.9071 9.5688 18.9768 9.55516C19.0465 9.54151 19.1187 9.54851 19.1844 9.57528C19.2501 9.60205 19.3062 9.64738 19.3457 9.70553C19.3852 9.76369 19.4063 9.83206 19.4063 9.90201C19.4063 9.9958 19.3684 10.0858 19.301 10.1521C19.2336 10.2184 19.1422 10.2557 19.0469 10.2557Z" fill="black"/>
<path d="M5.75 9.54858H3.23438C3.13906 9.54858 3.04765 9.58584 2.98026 9.65216C2.91286 9.71849 2.875 9.80844 2.875 9.90223C2.875 9.99603 2.91286 10.086 2.98026 10.1523C3.04765 10.2186 3.13906 10.2559 3.23438 10.2559H5.75C5.84531 10.2559 5.93672 10.2186 6.00412 10.1523C6.07151 10.086 6.10938 9.99603 6.10938 9.90223C6.10938 9.80844 6.07151 9.71849 6.00412 9.65216C5.93672 9.58584 5.84531 9.54858 5.75 9.54858Z" fill="black"/>
<path d="M14.7344 15.5608H8.26562C8.17031 15.5608 8.0789 15.5981 8.01151 15.6644C7.94411 15.7307 7.90625 15.8206 7.90625 15.9144C7.90625 16.0082 7.94411 16.0982 8.01151 16.1645C8.0789 16.2308 8.17031 16.2681 8.26562 16.2681H14.7344C14.8297 16.2681 14.9211 16.2308 14.9885 16.1645C15.0559 16.0982 15.0938 16.0082 15.0938 15.9144C15.0938 15.8206 15.0559 15.7307 14.9885 15.6644C14.9211 15.5981 14.8297 15.5608 14.7344 15.5608Z" fill="black"/>
<path d="M14.7344 17.3286H8.26562C8.17031 17.3286 8.0789 17.3659 8.01151 17.4322C7.94411 17.4985 7.90625 17.5885 7.90625 17.6823C7.90625 17.7761 7.94411 17.866 8.01151 17.9323C8.0789 17.9987 8.17031 18.0359 8.26562 18.0359H14.7344C14.8297 18.0359 14.9211 17.9987 14.9885 17.9323C15.0559 17.866 15.0938 17.7761 15.0938 17.6823C15.0938 17.5885 15.0559 17.4985 14.9885 17.4322C14.9211 17.3659 14.8297 17.3286 14.7344 17.3286Z" fill="black"/>
<path d="M11.5 19.0969H8.26562C8.17031 19.0969 8.0789 19.1342 8.01151 19.2005C7.94411 19.2668 7.90625 19.3568 7.90625 19.4506C7.90625 19.5444 7.94411 19.6343 8.01151 19.7006C8.0789 19.767 8.17031 19.8042 8.26562 19.8042H11.5C11.5953 19.8042 11.6867 19.767 11.7541 19.7006C11.8215 19.6343 11.8594 19.5444 11.8594 19.4506C11.8594 19.3568 11.8215 19.2668 11.7541 19.2005C11.6867 19.1342 11.5953 19.0969 11.5 19.0969Z" fill="black"/>
</svg>
