<svg width="19" height="28" viewBox="0 0 19 28" fill="none" xmlns="http://www.w3.org/2000/svg">
<g clip-path="url(#clip0_14_1906)">
<path d="M10.8346 22.74V18.6531H8.28594V22.74H5.4707L9.60843 27.6777L13.746 22.74H10.8346Z" fill="#259D44"/>
<path d="M17.7239 8.35775V6.16183C17.7239 6.0467 17.6761 5.92979 17.5963 5.84773L12.3055 0.429577C12.2365 0.34245 12.0971 0.296875 11.9912 0.296875H1.87301C1.62895 0.296875 1.43115 0.496896 1.43115 0.743684V8.35775H0.0429688V17.2299H1.43115V20.9878C1.43115 21.2348 1.62895 21.4346 1.87301 21.4346H7.54871V20.541H2.31487V17.2299H16.8401V20.541H11.5702V21.4346H17.282C17.5261 21.4346 17.7239 21.2348 17.7239 20.9878V17.2299H19.0654V8.35775H17.7239ZM12.433 1.83136L16.2239 5.71502H12.433V1.83136ZM6.80152 14.7782L6.44214 14.0516C6.29485 13.7716 6.20059 13.5631 6.0888 13.3309H6.07701C5.99453 13.5632 5.89438 13.7716 5.77066 14.0516L5.44074 14.7782H4.41577L5.56446 12.747L4.45701 10.7635H5.48787L5.83546 11.4961C5.95329 11.7404 6.04167 11.9368 6.13593 12.1632H6.14771C6.24198 11.907 6.31857 11.7285 6.41872 11.4961L6.75439 10.7635H7.77936L6.66012 12.7232L7.83827 14.7782H6.80152ZM11.0963 14.7782H8.61639V10.7635H9.51764V14.0157H11.0964L11.0963 14.7782ZM12.8933 14.8378C12.4398 14.8378 11.9921 14.7185 11.7682 14.5934L11.9507 13.8429C12.1924 13.968 12.5634 14.093 12.9463 14.093C13.3586 14.093 13.5764 13.9204 13.5764 13.6582C13.5764 13.408 13.388 13.265 12.9108 13.0924C12.2511 12.8601 11.8211 12.4907 11.8211 11.907C11.8211 11.2221 12.3866 10.6978 13.3232 10.6978C13.7708 10.6978 14.1006 10.7932 14.3363 10.9004L14.1361 11.633C13.977 11.5556 13.6944 11.4424 13.3056 11.4424C12.9167 11.4424 12.7282 11.6211 12.7282 11.8296C12.7282 12.0858 12.9521 12.199 13.4645 12.3956C14.1656 12.6575 14.4953 13.0269 14.4953 13.5929C14.4955 14.2659 13.9831 14.8378 12.8933 14.8378ZM16.8401 8.35775H2.31487V1.19049H11.5493V6.16168C11.5493 6.40847 11.7471 6.60849 11.9912 6.60849H16.8401V8.35775Z" fill="black"/>
<rect y="8.33984" width="19.1473" height="8.93617" fill="#259D44"/>
<path d="M5.51743 10.8453L6.29507 12.1743H6.3252L7.10662 10.8453H8.02737L6.85054 12.795L8.05373 14.7447H7.11603L6.3252 13.4138H6.29507L5.50424 14.7447H4.57031L5.77727 12.795L4.59291 10.8453H5.51743Z" fill="white"/>
<path d="M8.54329 14.7447V10.8453H9.3586V14.065H11.0118V14.7447H8.54329Z" fill="white"/>
<path d="M13.6437 11.9668C13.6286 11.8132 13.564 11.6939 13.4497 11.6088C13.3355 11.5238 13.1805 11.4812 12.9846 11.4812C12.8516 11.4812 12.7392 11.5003 12.6476 11.5384C12.556 11.5752 12.4857 11.6266 12.4367 11.6926C12.389 11.7586 12.3652 11.8335 12.3652 11.9173C12.3627 11.9871 12.3771 12.048 12.4085 12.1C12.4411 12.1521 12.4857 12.1972 12.5422 12.2352C12.5986 12.272 12.6639 12.3044 12.738 12.3323C12.812 12.359 12.8911 12.3818 12.9752 12.4009L13.3217 12.4847C13.4899 12.5227 13.6443 12.5735 13.7849 12.637C13.9255 12.7004 14.0472 12.7785 14.1502 12.8712C14.2531 12.9638 14.3328 13.073 14.3893 13.1987C14.4471 13.3243 14.4766 13.4684 14.4778 13.6309C14.4766 13.8695 14.4163 14.0764 14.297 14.2516C14.1791 14.4255 14.0083 14.5607 13.7849 14.6571C13.5627 14.7523 13.2947 14.7999 12.9809 14.7999C12.6696 14.7999 12.3984 14.7517 12.1675 14.6552C11.9377 14.5588 11.7582 14.416 11.6289 14.2268C11.5009 14.0364 11.4337 13.801 11.4275 13.5204H12.2164C12.2252 13.6512 12.2622 13.7603 12.3275 13.8479C12.394 13.9342 12.4825 13.9996 12.593 14.044C12.7047 14.0872 12.8309 14.1088 12.9715 14.1088C13.1095 14.1088 13.2294 14.0885 13.3311 14.0479C13.434 14.0072 13.5138 13.9508 13.5702 13.8784C13.6267 13.806 13.655 13.7229 13.655 13.629C13.655 13.5414 13.6292 13.4678 13.5778 13.4081C13.5276 13.3484 13.4535 13.2977 13.3556 13.2558C13.2589 13.2139 13.1403 13.1758 12.9997 13.1415L12.5798 13.0349C12.2547 12.955 11.998 12.8299 11.8097 12.6598C11.6214 12.4897 11.5279 12.2606 11.5291 11.9725C11.5279 11.7364 11.59 11.5301 11.7156 11.3537C11.8423 11.1772 12.0162 11.0395 12.2371 10.9405C12.4581 10.8415 12.7091 10.792 12.9903 10.792C13.2765 10.792 13.5263 10.8415 13.7397 10.9405C13.9544 11.0395 14.1213 11.1772 14.2406 11.3537C14.3598 11.5301 14.4213 11.7345 14.4251 11.9668H13.6437Z" fill="white"/>
</g>
<defs>
<clipPath id="clip0_14_1906">
<rect width="19" height="28" fill="white"/>
</clipPath>
</defs>
</svg>
